<?xml version="1.0" encoding="UTF-8"?>
<svg version="1.1" xmlns="http://www.w3.org/2000/svg" width="4725" height="4725">
<path d="M0 0 C312.18 0 624.36 0 946 0 C946 54.12 946 108.24 946 164 C1008.37 164 1070.74 164 1135 164 C1135 218.12 1135 272.24 1135 328 C1197.37 328 1259.74 328 1324 328 C1324 382.12 1324 436.24 1324 492 C1386.37 492 1448.74 492 1513 492 C1513 546.12 1513 600.24 1513 656 C1575.04 656 1637.08 656 1701 656 C1701 601.88 1701 547.76 1701 492 C1763.37 492 1825.74 492 1890 492 C1890 437.88 1890 383.76 1890 328 C1952.37 328 2014.74 328 2079 328 C2079 273.88 2079 219.76 2079 164 C2141.37 164 2203.74 164 2268 164 C2268 109.88 2268 55.76 2268 0 C2580.18 0 2892.36 0 3214 0 C3214 54.12 3214 108.24 3214 164 C3276.37 164 3338.74 164 3403 164 C3403 218.12 3403 272.24 3403 328 C3465.37 328 3527.74 328 3592 328 C3592 382.12 3592 436.24 3592 492 C3654.37 492 3716.74 492 3781 492 C3781 600.24 3781 708.48 3781 820 C3843.37 820 3905.74 820 3970 820 C3970 1144.72 3970 1469.44 3970 1804 C3907.63 1804 3845.26 1804 3781 1804 C3781 1912.24 3781 2020.48 3781 2132 C3718.63 2132 3656.26 2132 3592 2132 C3592 2186.12 3592 2240.24 3592 2296 C3529.63 2296 3467.26 2296 3403 2296 C3403 2349.79 3403 2403.58 3403 2459 C3371.65 2459 3340.3 2459 3308 2459 C3308 2513.12 3308 2567.24 3308 2623 C3276.98 2623 3245.96 2623 3214 2623 C3214 2677.12 3214 2731.24 3214 2787 C3151.63 2787 3089.26 2787 3025 2787 C3025 2841.12 3025 2895.24 3025 2951 C2962.63 2951 2900.26 2951 2836 2951 C2836 3005.12 2836 3059.24 2836 3115 C2773.63 3115 2711.26 3115 2647 3115 C2647 3169.12 2647 3223.24 2647 3279 C2584.63 3279 2522.26 3279 2458 3279 C2458 3333.12 2458 3387.24 2458 3443 C2395.63 3443 2333.26 3443 2269 3443 C2269 3497.12 2269 3551.24 2269 3607 C2206.63 3607 2144.26 3607 2080 3607 C2080 3661.12 2080 3715.24 2080 3771 C2017.63 3771 1955.26 3771 1891 3771 C1891 3824.79 1891 3878.58 1891 3934 C1828.63 3934 1766.26 3934 1702 3934 C1702 3988.12 1702 4042.24 1702 4098 C1639.3 4098 1576.6 4098 1512 4098 C1512 4043.88 1512 3989.76 1512 3934 C1449.63 3934 1387.26 3934 1323 3934 C1323 3880.21 1323 3826.42 1323 3771 C1260.63 3771 1198.26 3771 1134 3771 C1134 3716.88 1134 3662.76 1134 3607 C1071.63 3607 1009.26 3607 945 3607 C945 3552.88 945 3498.76 945 3443 C882.63 3443 820.26 3443 756 3443 C756 3388.88 756 3334.76 756 3279 C693.63 3279 631.26 3279 567 3279 C567 3224.88 567 3170.76 567 3115 C504.63 3115 442.26 3115 378 3115 C378 3060.88 378 3006.76 378 2951 C315.63 2951 253.26 2951 189 2951 C189 2896.88 189 2842.76 189 2787 C126.63 2787 64.26 2787 0 2787 C0 2732.88 0 2678.76 0 2623 C-62.37 2623 -124.74 2623 -189 2623 C-189 2568.88 -189 2514.76 -189 2459 C-220.02 2459 -251.04 2459 -283 2459 C-283 2405.21 -283 2351.42 -283 2296 C-314.35 2296 -345.7 2296 -378 2296 C-378 2241.88 -378 2187.76 -378 2132 C-440.37 2132 -502.74 2132 -567 2132 C-567 2023.76 -567 1915.52 -567 1804 C-629.04 1804 -691.08 1804 -755 1804 C-755 1479.28 -755 1154.56 -755 820 C-692.96 820 -630.92 820 -567 820 C-567 711.76 -567 603.52 -567 492 C-504.63 492 -442.26 492 -378 492 C-378 437.88 -378 383.76 -378 328 C-315.63 328 -253.26 328 -189 328 C-189 273.88 -189 219.76 -189 164 C-126.63 164 -64.26 164 0 164 C0 109.88 0 55.76 0 0 Z " fill="#DD0A16" transform="translate(755,313)"/>
<path d="M0 0 C312.18 0 624.36 0 946 0 C946 54.12 946 108.24 946 164 C1008.37 164 1070.74 164 1135 164 C1135 218.12 1135 272.24 1135 328 C1197.37 328 1259.74 328 1324 328 C1324 382.12 1324 436.24 1324 492 C1261.63 492 1199.26 492 1135 492 C1135 438.21 1135 384.42 1135 329 C1010.26 329 885.52 329 757 329 C757 274.88 757 220.76 757 165 C569.89 165 382.78 165 190 165 C190 219.12 190 273.24 190 329 C127.63 329 65.26 329 1 329 C1 436.91 1 544.82 1 656 C-61.37 656 -123.74 656 -188 656 C-188 926.27 -188 1196.54 -188 1475 C-125.63 1475 -63.26 1475 1 1475 C1 1583.24 1 1691.48 1 1803 C63.37 1803 125.74 1803 190 1803 C190 1857.12 190 1911.24 190 1967 C252.37 1967 314.74 1967 379 1967 C379 2075.24 379 2183.48 379 2295 C441.37 2295 503.74 2295 568 2295 C568 2349.12 568 2403.24 568 2459 C630.37 2459 692.74 2459 757 2459 C757 2513.12 757 2567.24 757 2623 C819.37 2623 881.74 2623 946 2623 C946 2676.79 946 2730.58 946 2786 C1008.37 2786 1070.74 2786 1135 2786 C1135 2840.12 1135 2894.24 1135 2950 C1197.37 2950 1259.74 2950 1324 2950 C1324 3004.12 1324 3058.24 1324 3114 C1386.37 3114 1448.74 3114 1513 3114 C1513 3168.12 1513 3222.24 1513 3278 C1575.04 3278 1637.08 3278 1701 3278 C1701 3223.88 1701 3169.76 1701 3114 C1825.74 3114 1950.48 3114 2079 3114 C2079 3059.88 2079 3005.76 2079 2950 C2141.37 2950 2203.74 2950 2268 2950 C2268 2895.88 2268 2841.76 2268 2786 C2330.37 2786 2392.74 2786 2457 2786 C2457 2732.21 2457 2678.42 2457 2623 C2519.37 2623 2581.74 2623 2646 2623 C2646 2514.76 2646 2406.52 2646 2295 C2708.37 2295 2770.74 2295 2835 2295 C2835 2240.88 2835 2186.76 2835 2131 C2897.37 2131 2959.74 2131 3024 2131 C3024 2076.88 3024 2022.76 3024 1967 C3086.37 1967 3148.74 1967 3213 1967 C3213 1858.76 3213 1750.52 3213 1639 C3275.37 1639 3337.74 1639 3402 1639 C3402 1530.76 3402 1422.52 3402 1311 C3464.37 1311 3526.74 1311 3591 1311 C3591 1148.97 3591 986.94 3591 820 C3528.63 820 3466.26 820 3402 820 C3402 657.97 3402 495.94 3402 329 C3277.97375273 329.0396243 3277.97375273 329.0396243 3153.94750977 329.09008789 C3130.0213623 329.09460449 3130.0213623 329.09460449 3118.83921814 329.09544373 C3110.98842574 329.09637964 3103.13764038 329.10006203 3095.28684998 329.10557556 C3086.24449806 329.11191659 3077.20215295 329.11484167 3068.1597988 329.11344495 C3063.52889145 329.11283947 3058.89799932 329.11383543 3054.26709473 329.11921513 C3050.0878118 329.12404097 3045.90855501 329.12435005 3041.72927094 329.12090111 C3040.21060252 329.12047354 3038.69193254 329.12177176 3037.17326725 329.12488258 C3035.11911408 329.1288463 3033.06495119 329.12615623 3031.01079655 329.12304783 C3029.29351135 329.12361741 3029.29351135 329.12361741 3027.54153353 329.1241985 C3025 329 3025 329 3024 328 C3024 274.21 3024 220.42 3024 165 C2837.22 165 2650.44 165 2458 165 C2458 219.12 2458 273.24 2458 329 C2333.26 329 2208.52 329 2080 329 C2080 382.79 2080 436.58 2080 492 C2017.63 492 1955.26 492 1891 492 C1891 546.12 1891 600.24 1891 656 C1828.3 656 1765.6 656 1701 656 C1701 601.88 1701 547.76 1701 492 C1763.37 492 1825.74 492 1890 492 C1890 437.88 1890 383.76 1890 328 C1952.37 328 2014.74 328 2079 328 C2079 273.88 2079 219.76 2079 164 C2141.37 164 2203.74 164 2268 164 C2268 109.88 2268 55.76 2268 0 C2580.18 0 2892.36 0 3214 0 C3214 54.12 3214 108.24 3214 164 C3276.37 164 3338.74 164 3403 164 C3403 218.12 3403 272.24 3403 328 C3465.37 328 3527.74 328 3592 328 C3592 382.12 3592 436.24 3592 492 C3654.37 492 3716.74 492 3781 492 C3781 600.24 3781 708.48 3781 820 C3843.37 820 3905.74 820 3970 820 C3970 1144.72 3970 1469.44 3970 1804 C3907.63 1804 3845.26 1804 3781 1804 C3781 1912.24 3781 2020.48 3781 2132 C3718.63 2132 3656.26 2132 3592 2132 C3592 2186.12 3592 2240.24 3592 2296 C3529.63 2296 3467.26 2296 3403 2296 C3403 2349.79 3403 2403.58 3403 2459 C3371.65 2459 3340.3 2459 3308 2459 C3308 2513.12 3308 2567.24 3308 2623 C3276.98 2623 3245.96 2623 3214 2623 C3214 2677.12 3214 2731.24 3214 2787 C3151.63 2787 3089.26 2787 3025 2787 C3025 2841.12 3025 2895.24 3025 2951 C2962.63 2951 2900.26 2951 2836 2951 C2836 3005.12 2836 3059.24 2836 3115 C2773.63 3115 2711.26 3115 2647 3115 C2647 3169.12 2647 3223.24 2647 3279 C2584.63 3279 2522.26 3279 2458 3279 C2458 3333.12 2458 3387.24 2458 3443 C2395.63 3443 2333.26 3443 2269 3443 C2269 3497.12 2269 3551.24 2269 3607 C2206.63 3607 2144.26 3607 2080 3607 C2080 3661.12 2080 3715.24 2080 3771 C2017.63 3771 1955.26 3771 1891 3771 C1891 3824.79 1891 3878.58 1891 3934 C1828.63 3934 1766.26 3934 1702 3934 C1702 3988.12 1702 4042.24 1702 4098 C1639.3 4098 1576.6 4098 1512 4098 C1512 4043.88 1512 3989.76 1512 3934 C1449.63 3934 1387.26 3934 1323 3934 C1323 3880.21 1323 3826.42 1323 3771 C1260.63 3771 1198.26 3771 1134 3771 C1134 3716.88 1134 3662.76 1134 3607 C1071.63 3607 1009.26 3607 945 3607 C945 3552.88 945 3498.76 945 3443 C882.63 3443 820.26 3443 756 3443 C756 3388.88 756 3334.76 756 3279 C693.63 3279 631.26 3279 567 3279 C567 3224.88 567 3170.76 567 3115 C504.63 3115 442.26 3115 378 3115 C378 3060.88 378 3006.76 378 2951 C315.63 2951 253.26 2951 189 2951 C189 2896.88 189 2842.76 189 2787 C126.63 2787 64.26 2787 0 2787 C0 2732.88 0 2678.76 0 2623 C-62.37 2623 -124.74 2623 -189 2623 C-189 2568.88 -189 2514.76 -189 2459 C-220.02 2459 -251.04 2459 -283 2459 C-283 2405.21 -283 2351.42 -283 2296 C-314.35 2296 -345.7 2296 -378 2296 C-378 2241.88 -378 2187.76 -378 2132 C-440.37 2132 -502.74 2132 -567 2132 C-567 2023.76 -567 1915.52 -567 1804 C-629.04 1804 -691.08 1804 -755 1804 C-755 1479.28 -755 1154.56 -755 820 C-692.96 820 -630.92 820 -567 820 C-567 711.76 -567 603.52 -567 492 C-504.63 492 -442.26 492 -378 492 C-378 437.88 -378 383.76 -378 328 C-315.63 328 -253.26 328 -189 328 C-189 273.88 -189 219.76 -189 164 C-126.63 164 -64.26 164 0 164 C0 109.88 0 55.76 0 0 Z " fill="#8B1812" transform="translate(755,313)"/>
<path d="M0 0 C312.18 0 624.36 0 946 0 C946 54.12 946 108.24 946 164 C1008.37 164 1070.74 164 1135 164 C1135 218.12 1135 272.24 1135 328 C1197.37 328 1259.74 328 1324 328 C1324 382.12 1324 436.24 1324 492 C1261.3 492 1198.6 492 1134 492 C1134 438.21 1134 384.42 1134 329 C1122.5847876 329.00523682 1111.1695752 329.01047363 1099.40844727 329.01586914 C1062.92841553 329.03190236 1026.44838378 329.04303526 989.96834943 329.05106533 C984.30661771 329.05231611 978.644886 329.05361043 972.9831543 329.05493164 C971.85595484 329.05519395 970.72875538 329.05545626 969.56739836 329.05572652 C951.29043524 329.06008369 933.01347524 329.06797149 914.73651398 329.0771528 C895.99751371 329.08648804 877.25851509 329.09205533 858.51951259 329.09408849 C846.94664963 329.09546399 835.37379551 329.09981602 823.80093526 329.10791647 C815.87645254 329.11318233 807.95197443 329.11480466 800.02749009 329.11350138 C795.44823258 329.11285775 790.86899058 329.11387832 786.28973579 329.11920547 C782.10463539 329.12403885 777.91956106 329.12433906 773.73445951 329.12089889 C772.21358988 329.12047314 770.69271868 329.1217694 769.17185218 329.12488318 C767.1181707 329.12884622 765.0644795 329.12615677 763.01079655 329.12304783 C761.29351135 329.12361741 761.29351135 329.12361741 759.54153353 329.1241985 C757 329 757 329 756 328 C756 274.21 756 220.42 756 165 C569.22 165 382.44 165 190 165 C190 219.12 190 273.24 190 329 C65.26 329 -59.48 329 -188 329 C-188 382.79 -188 436.58 -188 492 C-250.37 492 -312.74 492 -377 492 C-377 546.12 -377 600.24 -377 656 C-439.7 656 -502.4 656 -567 656 C-567 601.88 -567 547.76 -567 492 C-504.63 492 -442.26 492 -378 492 C-378 437.88 -378 383.76 -378 328 C-315.63 328 -253.26 328 -189 328 C-189 273.88 -189 219.76 -189 164 C-126.63 164 -64.26 164 0 164 C0 109.88 0 55.76 0 0 Z " fill="#8C1812" transform="translate(3023,313)"/>
<path d="M0 0 C125.07 0 250.14 0 379 0 C379 108.24 379 216.48 379 328 C254.26 328 129.52 328 1 328 C1 382.12 1 436.24 1 492 C-123.74 492 -248.48 492 -377 492 C-377 546.12 -377 600.24 -377 656 C-439.7 656 -502.4 656 -567 656 C-567 547.76 -567 439.52 -567 328 C-504.63 328 -442.26 328 -378 328 C-378 273.88 -378 219.76 -378 164 C-253.26 164 -128.52 164 0 164 C0 109.88 0 55.76 0 0 Z " fill="#FEFEFE" transform="translate(3401,641)"/>
<path d="M0 0 C312.18 0 624.36 0 946 0 C946 54.12 946 108.24 946 164 C1008.37 164 1070.74 164 1135 164 C1135 218.12 1135 272.24 1135 328 C1197.37 328 1259.74 328 1324 328 C1324 382.12 1324 436.24 1324 492 C1261.63 492 1199.26 492 1135 492 C1135 438.21 1135 384.42 1135 329 C1010.26 329 885.52 329 757 329 C757 274.88 757 220.76 757 165 C740.81888184 165.00523682 724.63776367 165.01047363 707.96630859 165.01586914 C697.11933392 165.01922373 686.27235927 165.02255592 675.42538452 165.02565002 C674.73454877 165.02584736 674.04371301 165.02604469 673.33194284 165.02624801 C649.84699736 165.03293734 626.36205177 165.0381603 602.87710571 165.04234314 C601.7174702 165.04255023 601.7174702 165.04255023 600.5344077 165.04276149 C583.69129362 165.04576161 566.8481795 165.04853073 550.00506534 165.05106533 C541.73286908 165.05231154 533.46067282 165.05360825 525.18847656 165.05493164 C523.95437918 165.05512778 523.95437918 165.05512778 522.69535054 165.05532788 C498.12641128 165.05925456 473.55747403 165.06587212 448.98853602 165.07458849 C410.9686623 165.08803267 372.94878979 165.09693475 334.92891355 165.09761363 C333.36651435 165.09764205 331.80411515 165.09767587 330.24171595 165.09771509 C263.20797424 165.09937501 196.17477517 165.07866343 129.14160156 164.77294922 C128.05242217 164.76801875 126.96324278 164.76308827 125.84105796 164.75800839 C83.89366297 164.56677305 41.9469557 164.27188238 0 164 C0 109.88 0 55.76 0 0 Z " fill="#121110" transform="translate(755,313)"/>
<path d="M0 0 C62.37 0 124.74 0 189 0 C189 324.72 189 649.44 189 984 C126.63 984 64.26 984 0 984 C0 659.28 0 334.56 0 0 Z " fill="#121110" transform="translate(4536,1133)"/>
<path d="M0 0 C62.04 0 124.08 0 188 0 C188 324.72 188 649.44 188 984 C125.96 984 63.92 984 0 984 C0 659.28 0 334.56 0 0 Z " fill="#121110" transform="translate(0,1133)"/>
<path d="M0 0 C312.18 0 624.36 0 946 0 C946 54.12 946 108.24 946 164 C633.82 164 321.64 164 0 164 C0 109.88 0 55.76 0 0 Z " fill="#121110" transform="translate(3023,313)"/>
<path d="M0 0 C311.85 0 623.7 0 945 0 C945 54.12 945 108.24 945 164 C1007.37 164 1069.74 164 1134 164 C1134 218.12 1134 272.24 1134 328 C1071.63 328 1009.26 328 945 328 C945 274.21 945 220.42 945 165 C820.26 165 695.52 165 567 165 C567 110.88 567 56.76 567 1 C379.89 1 192.78 1 0 1 C0 0.67 0 0.34 0 0 Z " fill="#8C1812" transform="translate(945,477)"/>
<path d="M0 0 C62.37 0 124.74 0 189 0 C189.33 53.79 189.66 107.58 190 163 C236.53 163.495 236.53 163.495 284 164 C284 217.79 284 271.58 284 327 C315.02 327 346.04 327 378 327 C378 381.12 378 435.24 378 491 C315.63 491 253.26 491 189 491 C189 436.88 189 382.76 189 327 C157.98 327 126.96 327 95 327 C95 273.21 95 219.42 95 164 C63.65 164 32.3 164 0 164 C0 109.88 0 55.76 0 0 Z " fill="#121110" transform="translate(377,2445)"/>
<path d="M0 0 C62.37 0 124.74 0 189 0 C189 53.79 189 107.58 189 163 C157.65 163 126.3 163 94 163 C94 217.12 94 271.24 94 327 C62.98 327 31.96 327 0 327 C0 381.12 0 435.24 0 491 C-62.37 491 -124.74 491 -189 491 C-189 436.88 -189 382.76 -189 327 C-157.65 327 -126.3 327 -94 327 C-94 272.88 -94 218.76 -94 163 C-62.98 163 -31.96 163 0 163 C0 109.21 0 55.42 0 0 Z " fill="#121110" transform="translate(3969,2609)"/>
<path d="M0 0 C62.7 0 125.4 0 190 0 C190 270.27 190 540.54 190 819 C189.67 819 189.34 819 189 819 C189 656.97 189 494.94 189 328 C126.63 328 64.26 328 0 328 C0 219.76 0 111.52 0 0 Z " fill="#8C1812" transform="translate(4157,805)"/>
<path d="M0 0 C62.37 0 124.74 0 189 0 C189 54.12 189 108.24 189 164 C126.96 164 64.92 164 1 164 C1 218.12 1 272.24 1 328 C-61.7 328 -124.4 328 -189 328 C-189 273.88 -189 219.76 -189 164 C-126.63 164 -64.26 164 0 164 C0 109.88 0 55.76 0 0 Z " fill="#121110" transform="translate(2645,641)"/>
<path d="M0 0 C62.37 0 124.74 0 189 0 C189 108.24 189 216.48 189 328 C126.63 328 64.26 328 0 328 C0 219.76 0 111.52 0 0 Z " fill="#121110" transform="translate(4347,2117)"/>
<path d="M0 0 C62.37 0 124.74 0 189 0 C189 108.24 189 216.48 189 328 C126.63 328 64.26 328 0 328 C0 219.76 0 111.52 0 0 Z " fill="#121110" transform="translate(188,2117)"/>
<path d="M0 0 C62.37 0 124.74 0 189 0 C189 108.24 189 216.48 189 328 C126.63 328 64.26 328 0 328 C0 219.76 0 111.52 0 0 Z " fill="#121110" transform="translate(4347,805)"/>
<path d="M0 0 C62.37 0 124.74 0 189 0 C189 108.24 189 216.48 189 328 C126.63 328 64.26 328 0 328 C0 219.76 0 111.52 0 0 Z " fill="#121110" transform="translate(188,805)"/>
<path d="M0 0 C62.04 0 124.08 0 188 0 C188 107.91 188 215.82 188 327 C125.96 327 63.92 327 0 327 C0 219.09 0 111.18 0 0 Z " fill="#121110" transform="translate(2268,969)"/>
<path d="M0 0 C62.7 0 125.4 0 190 0 C190 54.45 190 108.9 190 165 C142.64393479 165.04030303 142.64393479 165.04030303 122.86523438 165.04882812 C109.18513618 165.05477176 95.50504412 165.0617752 81.82495117 165.07543945 C71.86373974 165.08538441 61.90253328 165.09185298 51.94131702 165.09408849 C46.66345826 165.09539592 41.3856137 165.09848379 36.10775948 165.10573006 C31.14616116 165.11248731 26.18458297 165.11461757 21.2229805 165.11310768 C19.396372 165.11338414 17.56976287 165.11539101 15.74315834 165.11920547 C13.26055548 165.12413813 10.77802985 165.12299989 8.29542542 165.12025452 C7.56294903 165.12316736 6.83047264 165.1260802 6.0758 165.12908131 C1.11412121 165.11412121 1.11412121 165.11412121 0 164 C-0.09688731 161.88639683 -0.12186842 159.7694933 -0.12025452 157.65367126 C-0.12111053 156.98473846 -0.12196655 156.31580566 -0.12284851 155.62660217 C-0.1245133 153.36163734 -0.1189646 151.09674526 -0.11352539 148.83178711 C-0.11321929 147.18964674 -0.11335215 145.54750625 -0.11389065 143.90536594 C-0.11411718 139.49233218 -0.10830508 135.07932531 -0.10128021 130.66629791 C-0.09560159 126.53115246 -0.09531798 122.39601368 -0.09460449 118.26086426 C-0.08934907 106.15307258 -0.07538802 94.04528596 -0.0625 81.9375 C-0.041875 54.898125 -0.02125 27.85875 0 0 Z " fill="#8B1812" transform="translate(755,477)"/>
<path d="M0 0 C62.7 0 125.4 0 190 0 C190 54.12 190 108.24 190 164 C127.3 164 64.6 164 0 164 C0 109.88 0 55.76 0 0 Z " fill="#121110" transform="translate(2267,4247)"/>
<path d="M0 0 C62.37 0 124.74 0 189 0 C189 54.12 189 108.24 189 164 C126.63 164 64.26 164 0 164 C0 109.88 0 55.76 0 0 Z " fill="#121110" transform="translate(2646,3920)"/>
<path d="M0 0 C62.37 0 124.74 0 189 0 C189 54.12 189 108.24 189 164 C126.63 164 64.26 164 0 164 C0 109.88 0 55.76 0 0 Z " fill="#121110" transform="translate(1889,3920)"/>
<path d="M0 0 C62.37 0 124.74 0 189 0 C189 54.12 189 108.24 189 164 C126.63 164 64.26 164 0 164 C0 109.88 0 55.76 0 0 Z " fill="#121110" transform="translate(2835,3756)"/>
<path d="M0 0 C62.37 0 124.74 0 189 0 C189 54.12 189 108.24 189 164 C126.63 164 64.26 164 0 164 C0 109.88 0 55.76 0 0 Z " fill="#121110" transform="translate(1700,3756)"/>
<path d="M0 0 C62.37 0 124.74 0 189 0 C189 54.12 189 108.24 189 164 C126.63 164 64.26 164 0 164 C0 109.88 0 55.76 0 0 Z " fill="#121110" transform="translate(3024,3592)"/>
<path d="M0 0 C62.37 0 124.74 0 189 0 C189 54.12 189 108.24 189 164 C126.63 164 64.26 164 0 164 C0 109.88 0 55.76 0 0 Z " fill="#121110" transform="translate(1511,3592)"/>
<path d="M0 0 C62.37 0 124.74 0 189 0 C189 54.12 189 108.24 189 164 C126.63 164 64.26 164 0 164 C0 109.88 0 55.76 0 0 Z " fill="#121110" transform="translate(3213,3428)"/>
<path d="M0 0 C62.37 0 124.74 0 189 0 C189 54.12 189 108.24 189 164 C126.63 164 64.26 164 0 164 C0 109.88 0 55.76 0 0 Z " fill="#121110" transform="translate(1322,3428)"/>
<path d="M0 0 C62.37 0 124.74 0 189 0 C189 54.12 189 108.24 189 164 C126.63 164 64.26 164 0 164 C0 109.88 0 55.76 0 0 Z " fill="#121110" transform="translate(3402,3264)"/>
<path d="M0 0 C62.37 0 124.74 0 189 0 C189 54.12 189 108.24 189 164 C126.63 164 64.26 164 0 164 C0 109.88 0 55.76 0 0 Z " fill="#121110" transform="translate(1133,3264)"/>
<path d="M0 0 C62.37 0 124.74 0 189 0 C189 54.12 189 108.24 189 164 C126.63 164 64.26 164 0 164 C0 109.88 0 55.76 0 0 Z " fill="#121110" transform="translate(3591,3100)"/>
<path d="M0 0 C62.37 0 124.74 0 189 0 C189 54.12 189 108.24 189 164 C126.63 164 64.26 164 0 164 C0 109.88 0 55.76 0 0 Z " fill="#121110" transform="translate(944,3100)"/>
<path d="M0 0 C62.37 0 124.74 0 189 0 C189 54.12 189 108.24 189 164 C126.63 164 64.26 164 0 164 C0 109.88 0 55.76 0 0 Z " fill="#121110" transform="translate(755,2936)"/>
<path d="M0 0 C62.37 0 124.74 0 189 0 C189 54.12 189 108.24 189 164 C126.63 164 64.26 164 0 164 C0 109.88 0 55.76 0 0 Z " fill="#121110" transform="translate(4158,2445)"/>
<path d="M0 0 C62.37 0 124.74 0 189 0 C189 54.12 189 108.24 189 164 C126.63 164 64.26 164 0 164 C0 109.88 0 55.76 0 0 Z " fill="#121110" transform="translate(2079,805)"/>
<path d="M0 0 C62.37 0 124.74 0 189 0 C189 54.12 189 108.24 189 164 C126.63 164 64.26 164 0 164 C0 109.88 0 55.76 0 0 Z " fill="#121110" transform="translate(4158,641)"/>
<path d="M0 0 C62.37 0 124.74 0 189 0 C189 54.12 189 108.24 189 164 C126.63 164 64.26 164 0 164 C0 109.88 0 55.76 0 0 Z " fill="#121110" transform="translate(1890,641)"/>
<path d="M0 0 C62.37 0 124.74 0 189 0 C189 54.12 189 108.24 189 164 C126.63 164 64.26 164 0 164 C0 109.88 0 55.76 0 0 Z " fill="#121110" transform="translate(377,641)"/>
<path d="M0 0 C62.37 0 124.74 0 189 0 C189 54.12 189 108.24 189 164 C126.63 164 64.26 164 0 164 C0 109.88 0 55.76 0 0 Z " fill="#121110" transform="translate(3969,477)"/>
<path d="M0 0 C62.37 0 124.74 0 189 0 C189 54.12 189 108.24 189 164 C126.63 164 64.26 164 0 164 C0 109.88 0 55.76 0 0 Z " fill="#121110" transform="translate(2834,477)"/>
<path d="M0 0 C62.37 0 124.74 0 189 0 C189 54.12 189 108.24 189 164 C126.63 164 64.26 164 0 164 C0 109.88 0 55.76 0 0 Z " fill="#121110" transform="translate(1701,477)"/>
<path d="M0 0 C62.37 0 124.74 0 189 0 C189 54.12 189 108.24 189 164 C126.63 164 64.26 164 0 164 C0 109.88 0 55.76 0 0 Z " fill="#121110" transform="translate(566,477)"/>
<path d="M0 0 C62.37 0 124.74 0 189 0 C189 53.79 189 107.58 189 163 C126.63 163 64.26 163 0 163 C0 109.21 0 55.42 0 0 Z " fill="#121110" transform="translate(2457,4084)"/>
<path d="M0 0 C62.37 0 124.74 0 189 0 C189 53.79 189 107.58 189 163 C126.63 163 64.26 163 0 163 C0 109.21 0 55.42 0 0 Z " fill="#121110" transform="translate(2078,4084)"/>
</svg>
